<?xml version="1.0" encoding="UTF-8"?>
<svg version="1.1" xmlns="http://www.w3.org/2000/svg" width="818" height="576">
<path d="M0 0 C10.11842618 5.62134788 10.11842618 5.62134788 13.55859375 7.76953125 C14.34258545 8.25719971 15.12657715 8.74486816 15.93432617 9.24731445 C16.76037354 9.76382568 17.5864209 10.28033691 18.4375 10.8125 C20.29665172 11.96910898 22.15603753 13.12534174 24.015625 14.28125 C25.47645508 15.19003906 25.47645508 15.19003906 26.96679688 16.1171875 C32.19766707 19.36416681 37.44279686 22.58792921 42.6875 25.8125 C44.89584073 27.17056089 47.104174 28.52863391 49.3125 29.88671875 C50.4159375 30.56524902 51.519375 31.2437793 52.65625 31.94287109 C55.98009525 33.98775428 59.30273696 36.03457866 62.625 38.08203125 C73.94944184 45.0595818 85.28923205 52.01020347 96.65771484 58.91577148 C103.93959621 63.34346398 111.19033453 67.81986202 118.43212891 72.31274414 C126.92978298 77.5829006 135.46194615 82.79563518 144 88 C153.35144739 93.70016829 162.69105402 99.41811734 172 105.1875 C189.36076136 115.94694126 206.7547569 126.65119983 224.20800781 137.26000977 C231.15393698 141.48224903 238.08301128 145.73048405 245 150 C247.16648566 151.33362743 249.33315663 152.66695384 251.5 154 C252.58410156 154.66773438 253.66820312 155.33546875 254.78515625 156.0234375 C256.83246996 157.28217472 258.88174327 158.53773424 260.93359375 159.7890625 C262.96662921 161.03161993 264.97114636 162.32186851 266.94677734 163.65380859 C270.01371996 165.59117988 273.01533716 166.72192018 276.45385742 167.859375 C283.3880667 170.56195235 288.90667742 173.61039163 293 180 C297.27352805 193.37128302 295.15092615 209.35579298 294.51062012 223.14544678 C294.28406767 228.54039256 294.18478285 233.93758978 294.07421875 239.3359375 C293.8394291 249.89658603 293.46488626 260.447149 293 271 C288.59437435 269.58222733 284.75033614 267.91351277 280.703125 265.65625 C280.11696411 265.33119476 279.53080322 265.00613953 278.92687988 264.67123413 C277.03189455 263.61891262 275.14095109 262.55955072 273.25 261.5 C271.93027087 260.76532438 270.6102819 260.03111534 269.29003906 259.29736328 C266.68925742 257.85097464 264.08998565 256.40193554 261.4921875 254.95019531 C258.65390245 253.36516868 255.81305481 251.78512135 252.96875 250.2109375 C243.5818137 245.01529848 234.22478762 239.7663742 224.86572266 234.52075195 C212.59568571 227.6471308 200.29774703 220.8238785 188 214 C173.78876182 206.11434725 159.58555676 198.21526713 145.40917969 190.26708984 C134.4589642 184.13062904 123.48412335 178.03874456 112.50830078 171.94824219 C108.8151307 169.89805714 105.12432358 167.84363617 101.43359375 165.7890625 C99.57667526 164.75578547 97.71971283 163.72258746 95.86273193 162.68942261 C94.10104761 161.70895375 92.33982521 160.72765506 90.57861328 159.74633789 C89.51239746 159.15328857 88.44618164 158.56023926 87.34765625 157.94921875 C86.40929932 157.42674561 85.47094238 156.90427246 84.50415039 156.3659668 C82.35666592 155.19455453 80.19664668 154.07562605 78 153 C75.72552558 167.91745692 75.72552558 167.91745692 79.21728516 181.98632812 C82.8947263 185.32017856 87.59181338 186.91409807 92.14599609 188.73193359 C97.14551485 190.95327666 101.68620105 193.93900595 106.31176758 196.84341431 C109.2908857 198.70515541 112.29623021 200.5234429 115.30078125 202.34375 C116.22867966 202.90706779 116.22867966 202.90706779 117.17532349 203.48176575 C124.66683218 208.02309766 132.21003776 212.47727941 139.75 216.9375 C148.12843426 221.89427761 156.49034145 226.86053915 164.70581055 232.0847168 C172.59075359 237.06128787 180.65151628 241.75229869 188.67526245 246.50018311 C200.39663281 253.43711631 212.04973289 260.47676789 223.67089844 267.58056641 C227.39527212 269.85032622 231.13851637 272.08789138 234.88232422 274.32543945 C242.1168169 278.65693784 249.31649355 283.04608767 256.52084351 287.42745972 C265.30878101 292.77154121 274.11226349 298.08800743 282.9597168 303.33325195 C283.70519775 303.77757568 284.45067871 304.22189941 285.21875 304.6796875 C285.85748047 305.05851074 286.49621094 305.43733398 287.15429688 305.82763672 C287.76337891 306.2145166 288.37246094 306.60139648 289 307 C289.68870178 307.33986435 290.37740356 307.6797287 291.0869751 308.02989197 C293.58858186 310.60614467 293.47275177 312.65819327 293.49768066 316.14823914 C293.47610901 317.4084362 293.47610901 317.4084362 293.45410156 318.6940918 C293.45468567 319.5821048 293.45526978 320.4701178 293.45587158 321.38504028 C293.45308237 324.32349589 293.42195089 327.26094012 293.390625 330.19921875 C293.38316559 332.2351679 293.37747124 334.27112423 293.37347412 336.30708313 C293.35819422 341.66830229 293.31889193 347.02908867 293.2746582 352.39013672 C293.23375639 357.85964096 293.21547398 363.32921506 293.1953125 368.79882812 C293.15240011 379.53274234 293.08412015 390.26633519 293 401 C291.10875391 400.06188035 289.2183819 399.12199844 287.32836914 398.18139648 C286.27557266 397.65819321 285.22277618 397.13498993 284.13807678 396.59593201 C279.48632833 394.23019186 274.96332428 391.65884231 270.4375 389.0625 C268.42107204 387.91448745 266.40412308 386.76738964 264.38671875 385.62109375 C263.34306152 385.02796387 262.2994043 384.43483398 261.22412109 383.82373047 C255.74964439 380.7270819 250.25028929 377.67549699 244.75 374.625 C243.62198975 373.99924072 242.49397949 373.37348145 241.33178711 372.72875977 C239.03447147 371.45468269 236.73702643 370.18083893 234.43945312 368.90722656 C228.79097899 365.77506586 223.14561203 362.63731567 217.5 359.5 C210.72736865 355.73682728 203.95435577 351.9743485 197.1796875 348.21484375 C185.24278123 341.58931321 173.31759071 334.94370133 161.40917969 328.26708984 C153.82340519 324.0160495 146.22713651 319.7842052 138.625 315.5625 C137.50931641 314.9427832 136.39363281 314.32306641 135.24414062 313.68457031 C130.07257911 310.81296923 124.8997497 307.94369568 119.72351074 305.08053589 C107.90810978 298.54417817 96.10895725 291.99269645 84.46875 285.14746094 C81.41386328 282.98921454 81.41386328 282.98921454 78 282 C77.73789112 286.37385799 77.57855114 290.74569809 77.4375 295.125 C77.32438477 296.98125 77.32438477 296.98125 77.20898438 298.875 C76.86687936 305.45360905 76.86687936 305.45360905 79.77319336 311.0456543 C82.11155896 312.62032896 84.44047731 313.82357026 87 315 C88.28334016 315.75775468 89.55875733 316.52915692 90.82421875 317.31640625 C92.11048448 318.06766915 93.39830861 318.81626879 94.6875 319.5625 C96.18114513 320.43462949 97.67462654 321.30703942 99.16796875 322.1796875 C99.95220215 322.63698242 100.73643555 323.09427734 101.54443359 323.56542969 C105.87074589 326.0929114 110.18574723 328.63950309 114.5 331.1875 C115.42312988 331.73253174 116.34625977 332.27756348 117.29736328 332.83911133 C124.2386901 336.94371839 131.15340906 341.09142172 138.0625 345.25 C147.7099381 351.05650248 157.41085318 356.76495681 167.13635254 362.43908691 C176.42307499 367.86084377 185.63545727 373.39482298 194.8125 379 C202.46357962 383.67302125 210.12827474 388.28706761 217.98193359 392.61352539 C226.43240581 397.2969331 234.65947999 402.3660153 242.93359375 407.3515625 C249.91626349 411.5578854 256.93834199 415.69467219 263.97314453 419.81298828 C267.6302357 421.95473452 271.28385095 424.10238897 274.9375 426.25 C275.59943359 426.63841064 276.26136719 427.02682129 276.94335938 427.42700195 C278.22406988 428.17956303 279.49342025 428.95189174 280.74891663 429.74580383 C282.98091961 431.08703806 282.98091961 431.08703806 285.55332947 431.8132019 C288.90111702 433.11856234 290.66219078 434.23724171 293 437 C294.94402307 443.66323677 294.15669689 451.07556763 293.9765625 457.9296875 C293.95790275 460.00616042 293.94367214 462.08267747 293.9336853 464.15921021 C293.89556879 469.61513611 293.79740126 475.06838406 293.68664551 480.52325439 C293.58420164 486.09325937 293.53864554 491.66369875 293.48828125 497.234375 C293.38115032 508.15742432 293.21056345 519.07848918 293 530 C289.06804528 528.7282356 285.63344163 527.38267032 282.078125 525.26953125 C281.14871094 524.72167969 280.21929688 524.17382812 279.26171875 523.609375 C278.26785156 523.01640625 277.27398438 522.4234375 276.25 521.8125 C274.08894367 520.53707902 271.927471 519.26236327 269.765625 517.98828125 C268.09209961 516.99948975 268.09209961 516.99948975 266.38476562 515.99072266 C260.94407975 512.79082706 255.47178526 509.64631769 250 506.5 C241.65162049 501.69217246 233.31756351 496.86094045 225 492 C213.45277514 485.25286886 201.87097881 478.5666063 190.28222656 471.89111328 C183.77128743 468.13971976 177.26336806 464.38309006 170.75488281 460.62744141 C165.31414664 457.48817754 159.87268523 454.35018503 154.4296875 451.21484375 C142.9455118 444.59777108 131.47803106 437.95366023 120.03417969 431.26708984 C108.38340815 424.46412377 96.69096256 417.73357814 85 411 C72.31675148 403.69490048 59.6375422 396.38396663 47 389 C38.3672663 383.95638201 29.72114925 378.93645954 21.0625 373.9375 C19.4547168 373.0084082 19.4547168 373.0084082 17.81445312 372.06054688 C16.79416016 371.47208984 15.77386719 370.88363281 14.72265625 370.27734375 C13.38859741 369.50765259 13.38859741 369.50765259 12.02758789 368.72241211 C8.03549096 366.45128528 4.01492881 364.23051601 0 362 C0 242.54 0 123.08 0 0 Z " fill="#12A2D5" transform="translate(420,16)"/>
<path d="M0 0 C0 34.32 0 68.64 0 104 C-9.24 109.28 -18.48 114.56 -28 120 C-33.5186466 123.30100379 -33.5186466 123.30100379 -39.0234375 126.625 C-44.38453978 129.85245744 -49.8243413 132.94535283 -55.25 136.0625 C-64.37502271 141.30691023 -73.45508608 146.61816802 -82.5 152 C-92.43639918 157.91024047 -102.41904895 163.73293751 -112.44140625 169.49609375 C-119.64326497 173.63759846 -126.82796883 177.80706574 -134 182 C-142.46221845 186.94634479 -150.94359093 191.85828111 -159.4375 196.75 C-168.01901367 201.6902246 -168.01901367 201.6902246 -176.57421875 206.67578125 C-177.25621338 207.0737793 -177.93820801 207.47177734 -178.64086914 207.88183594 C-179.9582354 208.66573937 -181.26381972 209.46980712 -182.55639648 210.29394531 C-186.70148524 212.88890052 -190.70587547 214.64779907 -195.3359375 216.24609375 C-202.40045103 218.99891054 -208.68180234 221.50487608 -213 228 C-216.98419449 241.11979425 -215.07152245 256.53175922 -214 270 C-207.49363032 266.7890382 -201.04247901 263.5506472 -194.75 259.9375 C-187.88555135 256.02667866 -180.95364675 252.24965367 -174 248.5 C-167.3024349 244.88623946 -160.61805921 241.25759279 -154 237.5 C-147.42207508 233.76613694 -140.78052742 230.15601812 -134.125 226.5625 C-124.89840225 221.57952168 -115.70927665 216.53650383 -106.55322266 211.42529297 C-91.55255861 203.0514283 -76.534172 194.71725911 -61.41625977 186.55664062 C-55.00294281 183.09245879 -48.61408219 179.58875008 -42.24951172 176.03588867 C-37.35740677 173.3060127 -32.45508955 170.59529833 -27.546875 167.89453125 C-26.89111984 167.53352829 -26.23536469 167.17252533 -25.55973816 166.80058289 C-22.90346477 165.33831524 -20.24718905 163.87605951 -17.58950806 162.41635132 C-15.72699651 161.39331726 -13.8653796 160.36867158 -12.00390625 159.34375 C-10.37690796 158.44946289 -10.37690796 158.44946289 -8.71704102 157.53710938 C-5.90987358 155.9927089 -5.90987358 155.9927089 -3 154 C-2.01 154 -1.02 154 0 154 C0 183.04 0 212.08 0 242 C-7.26 245.96 -14.52 249.92 -22 254 C-25.73725815 256.09239594 -29.4683471 258.18906974 -33.1875 260.3125 C-41.5180836 265.04296812 -49.87331926 269.72664411 -58.25 274.375 C-59.37591553 274.99979248 -60.50183105 275.62458496 -61.66186523 276.26831055 C-66.25967983 278.81858162 -70.85837236 281.36726739 -75.45703125 283.91601562 C-88.0949695 290.92198479 -100.71623878 297.9537259 -113.28686523 305.07983398 C-126.77401906 312.71651866 -140.3436257 320.20623097 -153.90234375 327.71484375 C-164.66820662 333.68057989 -175.38815094 339.72569763 -186.09788513 345.79154968 C-191.36875483 348.77555817 -196.64223615 351.75494894 -201.9152832 354.73510742 C-202.98229713 355.33817467 -204.04931107 355.94124191 -205.14865875 356.56258392 C-207.76576056 358.04174374 -210.38287465 359.52088183 -213 361 C-212.98948325 361.5970789 -212.9789665 362.19415779 -212.96813107 362.80932999 C-212.71733351 377.3839599 -212.56179859 391.9574979 -212.51034451 406.53412247 C-212.48319707 413.58401594 -212.42464006 420.63095465 -212.2902832 427.6796875 C-212.16058508 434.48875747 -212.12088458 441.29372652 -212.13490486 448.10399628 C-212.12575429 450.69565087 -212.08694947 453.28738324 -212.01739311 455.87812042 C-211.51552961 475.61444486 -211.51552961 475.61444486 -215.63295364 481.22520447 C-219.5486044 484.98078307 -223.94334531 487.51954694 -228.8004446 489.87215996 C-232.3684985 491.70170881 -235.56364902 494.03797435 -238.8125 496.375 C-240.13138982 497.27882184 -241.45036946 498.18251266 -242.76953125 499.0859375 C-247.53492616 502.35938941 -252.2671223 505.67978732 -257 509 C-263.26178437 513.38804736 -269.52473778 517.77422614 -275.8125 522.125 C-276.75319336 522.78048828 -276.75319336 522.78048828 -277.71289062 523.44921875 C-278.30908203 523.86042969 -278.90527344 524.27164063 -279.51953125 524.6953125 C-280.02589111 525.04609863 -280.53225098 525.39688477 -281.05395508 525.75830078 C-283.97107571 527.61960746 -286.99254577 529.2886695 -290 531 C-290.5038705 486.52364262 -290.89136845 442.04758802 -291.12343725 397.56893774 C-291.15095185 392.31450852 -291.17942703 387.06008491 -291.20849609 381.80566406 C-291.21426692 380.75963062 -291.22003775 379.71359718 -291.22598346 378.63586576 C-291.32164038 361.7118488 -291.49505543 344.78948065 -291.69736151 327.86644094 C-291.90330732 310.49366565 -292.02533582 293.12175203 -292.06994689 275.74780619 C-292.10009464 265.03128264 -292.19518041 254.31941899 -292.37416227 243.60433079 C-292.49072458 236.25018079 -292.52554748 228.8984286 -292.4970303 221.54342256 C-292.4829701 217.30163934 -292.5040235 213.06797279 -292.62252045 208.82764626 C-293.27995285 184.10399719 -293.27995285 184.10399719 -287.8336606 177.28939676 C-282.64632745 172.74226025 -276.92039046 169.76635717 -270.58766007 167.11873174 C-267.12934055 165.62358489 -264.15046783 163.73079479 -261.0078125 161.66015625 C-259.04780964 160.45941053 -257.08688795 159.2601632 -255.125 158.0625 C-238.74329657 148.0188898 -222.45519647 137.82849327 -206.21655273 127.55541992 C-191.5066084 118.25538876 -176.73101434 109.06008318 -161.92749023 99.90991211 C-152.27982131 93.94307708 -142.66443033 87.92477049 -133.04833984 81.90722656 C-127.03619765 78.14566523 -121.02152792 74.38814683 -115.00732422 70.62988281 C-109.96888249 67.4811647 -104.93107133 64.33144665 -99.89453125 61.1796875 C-90.44226954 55.26596479 -80.98426093 49.36229396 -71.5 43.5 C-56.62106083 34.30218764 -41.78515521 25.03534702 -27 15.6875 C-26.24001709 15.20756592 -25.48003418 14.72763184 -24.69702148 14.2331543 C-20.90745117 11.83980623 -17.12139076 9.44116256 -13.33984375 7.03515625 C-11.87250605 6.10659665 -10.40506292 5.17820361 -8.9375 4.25 C-7.92719727 3.60357544 -7.92719727 3.60357544 -6.89648438 2.9440918 C-2.22692423 0 -2.22692423 0 0 0 Z " fill="#3B3191" transform="translate(393,16)"/>
</svg>
